<?xml version="1.0" encoding="utf-8"?>
<!-- Generator: Adobe Illustrator 21.0.2, SVG Export Plug-In . SVG Version: 6.00 Build 0)  -->
<svg version="1.1" xmlns="http://www.w3.org/2000/svg" xmlns:xlink="http://www.w3.org/1999/xlink" x="0px" y="0px"
	 viewBox="0 0 362 276" style="enable-background:new 0 0 362 276;" xml:space="preserve">
<style type="text/css">
	.st0{filter:url(#Adobe_OpacityMaskFilter);}
	.st1{fill:url(#SVGID_2_);}
	.st2{opacity:0.4;mask:url(#SVGID_1_);}
	.st3{filter:url(#Adobe_OpacityMaskFilter_1_);}
	.st4{fill:url(#SVGID_4_);}
	.st5{mask:url(#SVGID_3_);fill:#FFFFFF;}
	.st6{filter:url(#Adobe_OpacityMaskFilter_2_);}
	.st7{fill:url(#SVGID_6_);}
	.st8{mask:url(#SVGID_5_);fill:#FFFFFF;}
	.st9{fill:#FFFFFF;}
	.st10{fill:none;}
	.st11{fill:none;stroke:#FFFFFF;stroke-width:2;stroke-miterlimit:10;}
	.st12{font-family:'HemiHeadRg-BoldItalic';}
	.st13{font-size:238px;}
</style>
<g id="bg">
	<defs>
		<filter id="Adobe_OpacityMaskFilter" filterUnits="userSpaceOnUse" x="22.8" y="26" width="317" height="225">
			<feColorMatrix  type="matrix" values="1 0 0 0 0  0 1 0 0 0  0 0 1 0 0  0 0 0 1 0"/>
		</filter>
	</defs>
	<mask maskUnits="userSpaceOnUse" x="22.8" y="26" width="317" height="225" id="SVGID_1_">
		<g class="st0">
			
				<linearGradient id="SVGID_2_" gradientUnits="userSpaceOnUse" x1="45.6796" y1="479.9638" x2="316.6669" y2="479.9638" gradientTransform="matrix(1.1651 0 0 55.25 -30.4571 -26379.5)">
				<stop  offset="0" style="stop-color:#000000"/>
				<stop  offset="0.5" style="stop-color:#FFFFFF"/>
				<stop  offset="1" style="stop-color:#000000"/>
			</linearGradient>
			<rect x="22.8" y="-274" class="st1" width="315.7" height="825"/>
		</g>
	</mask>
	<rect x="22.8" y="26" class="st2" width="317" height="225"/>
	<defs>
		<filter id="Adobe_OpacityMaskFilter_1_" filterUnits="userSpaceOnUse" x="36.6" y="251" width="289.4" height="4">
			<feColorMatrix  type="matrix" values="1 0 0 0 0  0 1 0 0 0  0 0 1 0 0  0 0 0 1 0"/>
		</filter>
	</defs>
	<mask maskUnits="userSpaceOnUse" x="36.6" y="251" width="289.4" height="4" id="SVGID_3_">
		<g class="st3">
			
				<linearGradient id="SVGID_4_" gradientUnits="userSpaceOnUse" x1="57.5415" y1="255" x2="304.9006" y2="255" gradientTransform="matrix(1.1651 0 0 -1 -30.4571 508)">
				<stop  offset="0" style="stop-color:#000000"/>
				<stop  offset="0.5" style="stop-color:#FFFFFF"/>
				<stop  offset="1" style="stop-color:#000000"/>
			</linearGradient>
			<rect x="36.6" y="245.7" class="st4" width="288.2" height="14.7"/>
		</g>
	</mask>
	<rect x="36.6" y="251" class="st5" width="289.4" height="4"/>
	<defs>
		<filter id="Adobe_OpacityMaskFilter_2_" filterUnits="userSpaceOnUse" x="36.6" y="22" width="289.4" height="4">
			<feColorMatrix  type="matrix" values="1 0 0 0 0  0 1 0 0 0  0 0 1 0 0  0 0 0 1 0"/>
		</filter>
	</defs>
	<mask maskUnits="userSpaceOnUse" x="36.6" y="22" width="289.4" height="4" id="SVGID_5_">
		<g class="st6">
			
				<linearGradient id="SVGID_6_" gradientUnits="userSpaceOnUse" x1="57.5415" y1="484" x2="304.9006" y2="484" gradientTransform="matrix(1.1651 0 0 -1 -30.4571 508)">
				<stop  offset="0" style="stop-color:#000000"/>
				<stop  offset="0.5" style="stop-color:#FFFFFF"/>
				<stop  offset="1" style="stop-color:#000000"/>
			</linearGradient>
			<rect x="36.6" y="16.7" class="st7" width="288.2" height="14.7"/>
		</g>
	</mask>
	<rect x="36.6" y="22" class="st8" width="289.4" height="4"/>
	<polyline class="st9" points="192.5,260.5 181.3,271.7 170,260.5 	"/>
	<polyline class="st9" points="170,17.5 181.3,6.3 192.5,17.5 	"/>
</g>
<g id="GO_x5F_">
	<rect x="-15.8" y="49.2" class="st10" width="364.8" height="187.8"/>
	<text transform="matrix(1 0 0 1 10.351 220.0386)" class="st11 st12 st13">GO</text>
</g>
<g id="GO">
	<rect x="-2.8" y="49.2" class="st10" width="338.8" height="187.8"/>
	<text transform="matrix(1 0 0 1 10.351 220.0386)" class="st9 st12 st13">GO</text>
</g>
<g id="_x31__x5F_">
	<rect x="65.3" y="49.2" class="st10" width="202.5" height="187.8"/>
	<text transform="matrix(1 0 0 1 129.5887 220.0386)" class="st11 st12 st13">1</text>
</g>
<g id="_x31_">
	<rect x="65.3" y="49.2" class="st10" width="202.5" height="187.8"/>
	<text transform="matrix(1 0 0 1 129.5887 220.0386)" class="st9 st12 st13">1</text>
</g>
<g id="_x32__x5F_">
	<rect x="65.3" y="49.2" class="st10" width="202.5" height="187.8"/>
	<text transform="matrix(1 0 0 1 89.3671 220.0386)" class="st11 st12 st13">2</text>
</g>
<g id="_x32_">
	<rect x="65.3" y="49.2" class="st10" width="202.5" height="187.8"/>
	<text transform="matrix(1 0 0 1 89.3671 220.0386)" class="st9 st12 st13">2</text>
</g>
<g id="_x33__x5F_">
	<rect x="65.3" y="49.2" class="st10" width="202.5" height="187.8"/>
	<text transform="matrix(1 0 0 1 91.39 220.0386)" class="st11 st12 st13">3</text>
</g>
<g id="_x33_">
	<rect x="65.3" y="49.2" class="st10" width="202.5" height="187.8"/>
	<text transform="matrix(1 0 0 1 91.39 220.0386)" class="st9 st12 st13">3</text>
</g>
</svg>
