# Exported from ProBuilder
# http://www.procore3d.com/probuilder
# 4/1/2019 3:09:33 PM

mtllib ./Block_Passerelle3.mtl
o Block_Passerelle3

g Cube (1)
v 49.70004 3.15 -21.79996
v 49.70459 3.150002 34.6689
v 49.70004 3.95 -21.79996
v 49.70459 3.950002 34.6689
v 49.70459 3.150002 34.6689
v 39.70459 3.150002 34.66971
v 49.70459 3.950002 34.6689
v 39.70459 3.950002 34.66971
v 39.70459 3.150002 34.66971
v 39.70004 3.15 -21.79915
v 39.70459 3.950002 34.66971
v 39.70004 3.95 -21.79915
v 39.69865 3.149999 -39.18749
v 49.69865 3.15 -39.18834
v 39.69865 3.95 -39.18749
v 49.69865 3.95 -39.18834
v 49.70004 3.95 -21.79996
v 49.70459 3.950002 34.6689
v 39.70004 3.95 -21.79915
v 39.70459 3.950002 34.66971
v 39.70004 3.15 -21.79915
v 39.70459 3.150002 34.66971
v 49.70004 3.15 -21.79996
v 49.70459 3.150002 34.6689
v 39.70004 3.15 -21.79915
v 49.70004 3.15 -21.79996
v 39.69865 3.149999 -39.18749
v 49.69865 3.15 -39.18834
v 39.70004 3.95 -21.79915
v 39.70004 3.15 -21.79915
v 39.69865 3.95 -39.18749
v 39.69865 3.149999 -39.18749
v 49.70004 3.15 -21.79996
v 49.70004 3.95 -21.79996
v 49.69865 3.15 -39.18834
v 49.69865 3.95 -39.18834
v 49.70004 3.95 -21.79996
v 39.70004 3.95 -21.79915
v 49.69865 3.95 -39.18834
v 39.69865 3.95 -39.18749

vn 1 1.053544E-08 -8.059914E-05
vn 1 1.053544E-08 -8.059914E-05
vn 1 1.053544E-08 -8.059914E-05
vn 1 1.053544E-08 -8.059914E-05
vn 8.072853E-05 3.161056E-08 1
vn 8.072853E-05 3.161056E-08 1
vn 8.072853E-05 3.161056E-08 1
vn 8.072853E-05 3.161056E-08 1
vn -1 -1.053544E-08 8.053284E-05
vn -1 -1.053544E-08 8.053284E-05
vn -1 -1.053544E-08 8.053284E-05
vn -1 -1.053544E-08 8.053284E-05
vn -8.54969E-05 -3.161061E-08 -1
vn -8.54969E-05 -3.161061E-08 -1
vn -8.54969E-05 -3.161061E-08 -1
vn -8.54969E-05 -3.161061E-08 -1
vn -1.053824E-08 1 -3.477631E-08
vn -1.053824E-08 1 -3.477631E-08
vn -1.053824E-08 1 -3.477631E-08
vn -1.053824E-08 1 -3.477631E-08
vn 1.053798E-08 -1 3.160972E-08
vn 1.053798E-08 -1 3.160972E-08
vn 1.053798E-08 -1 3.160972E-08
vn 1.053798E-08 -1 3.160972E-08
vn 1.053798E-08 -1 3.160972E-08
vn 1.053798E-08 -1 3.160972E-08
vn 1.053798E-08 -1 3.160972E-08
vn 1.053798E-08 -1 3.160972E-08
vn -1 -1.053546E-08 7.985345E-05
vn -1 -1.053546E-08 7.985345E-05
vn -1 -1.053546E-08 7.985345E-05
vn -1 -1.053546E-08 7.985345E-05
vn 1 1.053545E-08 -8.011854E-05
vn 1 1.053545E-08 -8.011854E-05
vn 1 1.053545E-08 -8.011854E-05
vn 1 1.053545E-08 -8.011854E-05
vn -1.053716E-08 1 -2.132619E-08
vn -1.053713E-08 1 -2.132617E-08
vn -1.053713E-08 1 -2.132617E-08
vn -1.05371E-08 1 -2.132616E-08

vt 0 0
vt -56.46885 0
vt 0 0.8
vt -56.46885 0.8000002
vt -7.306776E-06 0
vt -10.00001 0
vt -7.306776E-06 0.8000002
vt -10.00001 0.8000002
vt 56.46886 0
vt -1.857735E-06 0
vt 56.46886 0.8000002
vt -1.857735E-06 0.8
vt 9.999902 0
vt -9.352116E-05 0
vt 9.999902 0.8000002
vt -9.352116E-05 0.8000002
vt 2.533275E-09 0
vt 56.46885 1.423437E-05
vt 2.533275E-09 -10
vt 56.46886 -9.99999
vt 0 -10
vt -56.46886 -9.99999
vt 0 0
vt -56.46885 1.423437E-05
vt 0 -10
vt 0 0
vt 17.38833 -9.999991
vt 17.38838 3.9737E-06
vt 4.936108E-06 0.8
vt 4.936108E-06 0
vt -17.38833 0.8000002
vt -17.38833 0
vt 0 0
vt 0 0.8
vt 17.38838 0
vt 17.38838 0.8000002
vt -8.226823E-09 0
vt -8.226823E-09 -10
vt -17.38838 3.9737E-06
vt -17.38833 -9.999991

g Cube (1)
usemtl DefaultHDMaterial
f 3/3/3 4/4/4 2/2/2 1/1/1
f 7/7/7 8/8/8 6/6/6 5/5/5
f 11/11/11 12/12/12 10/10/10 9/9/9
f 15/15/15 16/16/16 14/14/14 13/13/13
f 19/19/19 20/20/20 18/18/18 17/17/17
f 23/23/23 24/24/24 22/22/22 21/21/21
f 27/27/27 28/28/28 26/26/26 25/25/25
f 31/31/31 32/32/32 30/30/30 29/29/29
f 35/35/35 36/36/36 34/34/34 33/33/33
f 39/39/39 40/40/40 38/38/38 37/37/37

